<?xml version="1.0" encoding="UTF-8"?>
<svg id="Calque_1" data-name="Calque 1" xmlns="http://www.w3.org/2000/svg" viewBox="0 0 36.47 36.47">
  <defs>
    <style>
      .cls-1 {
        fill: #574f8c;
      }

      .cls-2 {
        fill: #fff2f6;
      }
    </style>
  </defs>
  <circle class="cls-1" cx="18.24" cy="18.24" r="18.24"/>
  <path class="cls-2" d="m16.67,9.24v4.98c0,2.59-.31,4.72-.93,6.4-.62,1.68-1.69,3.1-3.21,4.26-1.52,1.16-3.24,1.94-5.17,2.35v-4.02c1.37-.76,2.15-1.78,2.33-3.09h-2.33v-10.88h9.3Zm12.42,0v4.98c0,2.59-.31,4.72-.93,6.4-.62,1.68-1.69,3.1-3.21,4.26-1.52,1.16-3.24,1.94-5.17,2.35v-4.02c1.35-.76,2.12-1.78,2.3-3.09h-2.3v-10.88h9.3Z"/>
</svg>