<?xml version="1.0" encoding="UTF-8"?>
<svg id="Calque_1" data-name="Calque 1" xmlns="http://www.w3.org/2000/svg" viewBox="0 0 27.15 27.15">
  <defs>
    <style>
      .cls-1 {
        fill: #574f8c;
      }

      .cls-2 {
        fill: #fff2f6;
      }
    </style>
  </defs>
  <circle class="cls-1" cx="13.57" cy="13.57" r="13.57" transform="translate(-.77 26.33) rotate(-86.65)"/>
  <path class="cls-2" d="m5.49,20.27v-3.7c0-1.94.23-3.53.7-4.78.47-1.24,1.27-2.3,2.4-3.17,1.13-.87,2.4-1.45,3.82-1.74v2.96c-1,.58-1.58,1.35-1.71,2.32h1.71v8.1h-6.92Zm9.25,0v-3.7c0-1.94.23-3.53.7-4.78.47-1.24,1.26-2.3,2.39-3.17,1.12-.87,2.4-1.45,3.83-1.74v2.96c-1,.58-1.58,1.35-1.71,2.32h1.71v8.1h-6.92Z"/>
</svg>