<svg xmlns="http://www.w3.org/2000/svg" xmlns:xlink="http://www.w3.org/1999/xlink" viewBox="0 0 1181.81 1181.81"><defs><style>.cls-1{fill:#fff;}.cls-2{fill:url(#radial-gradient);}</style><radialGradient id="radial-gradient" cx="637.26" cy="622.74" r="476.3" gradientUnits="userSpaceOnUse"><stop offset="0" stop-color="#141522"/><stop offset="0.11" stop-color="#181a25"/><stop offset="0.49" stop-color="#20232d"/><stop offset="1" stop-color="#23262f"/></radialGradient></defs><g id="Layer_2" data-name="Layer 2"><g id="Layer_1-2" data-name="Layer 1"><circle class="cls-1" cx="590.9" cy="590.9" r="590.9"/><path class="cls-2" d="M1090.77,761.62l-51-174L953.91,295.06A157.36,157.36,0,0,0,803.78,182L498.87,180.3l-181.3-1c-81.6-.45-107.92,98.71-39.82,150l60.79,45.79L256.83,483.58l.06.05c-1.48,1.87-2.94,3.77-4.38,5.68-119.66,158.89-87.87,384.7,71,504.37s384.71,87.87,504.38-71q2.16-2.86,4.26-5.77l.05,0,81.71-108.49,43.66,32.88C1025.69,892.61,1113.73,839.92,1090.77,761.62Zm-307.59,24c-61.08,61.81-122.8,123-183.94,184.74-7.7,7.77-12.49,6.8-19.67-.46-63.24-64-128.47-126-189.77-191.8-74.93-80.38-95.91-176.17-59.92-279.75C367.23,390.87,447,330.86,559.14,314.06c10.37-1.56,21.18-.21,31.78-.21,74.52.25,139.44,25.18,192,78.7,26.73,27.19,26.35,67.21.9,94.3C759.65,512.6,719,515,690.63,491c-30.92-26.08-64.85-41-106.45-39.55-88,3.11-152.43,92.61-126,176.8,30.34,96.77,143.36,130.41,223.05,66.09,15.57-12.57,30.6-24.29,52.3-23.88,29.32.56,52.83,14.75,63.91,42.38C808.16,739.75,803.61,765,783.18,785.62Zm-112-193c-.32,44.14-37.33,79.2-82.84,78.48-44.35-.69-78.12-36.18-77.68-81.63a79.49,79.49,0,0,1,80.7-78.75C636.05,511.23,671.49,547.59,671.16,592.61Z"/></g></g></svg>